# xmcd
#
# Track frame offsets:
#	150
#	27352
#	52512
#	76246
#	105723
#	126043
#	149484
#	171940
#	195658
#	213352
#
# Disc length: 3143 seconds
#
# Revision: 2980893998
# Processed by: cddbd v1.5.2PL0 Copyright (c) Steve Scherf et al.
# Submitted via: EZCDAudioConverter 8.0.2.1
#
DISCID=820c450a
DTITLE=Khả Tú, Hải Triều - Vòng Tay Lỡ Làng
DYEAR=1997
DGENRE=Contemporary Pop
TTITLE0=Khả Tú, Hải Triều - Vòng Tay Lỡ Làng
TTITLE1=Khả Tú - Nỗi buồn ngày vu qui
TTITLE2=Hải Triều - Nỗi niềm chưa trọn
TTITLE3=Khả Tú, Hải Triều - Chiều qua phố cũ
TTITLE4=Khả Tú - Có lẽ
TTITLE5=Khả Tú, Hải Triều - Người đã như mơ
TTITLE6=Hải Triều - Mảnh tình sầu
TTITLE7=Khả Tú - Biển dâu
TTITLE8=Khả Tú, Hải Triều - Người đã quên
TTITLE9=Hải Triều - Đời hợp tan
EXTD=
EXTT0=
EXTT1=
EXTT2=
EXTT3=
EXTT4=
EXTT5=
EXTT6=
EXTT7=
EXTT8=
EXTT9=
PLAYORDER=
